P3
2 2
255
255 255 255
244 244 244
233 233 233
211 211 211